<svg width="12" height="12" viewBox="0 0 12 12" xmlns="http://www.w3.org/2000/svg">
<path fill-rule="evenodd" clip-rule="evenodd" d="M4.4693e-07 0.301937C4.4693e-07 0.135183 0.134316 0 0.3 0H11.7C11.8657 0 12 0.135183 12 0.301937V5.67642C12 5.84317 11.8657 5.97836 11.7 5.97836H0.3C0.134316 5.97836 4.4693e-07 5.84317 4.4693e-07 5.67642V0.301937ZM3.03219 1.14736C2.89942 1.14736 2.79179 1.25569 2.79179 1.38931V2.23613H1.9504C1.81763 2.23613 1.71 2.34446 1.71 2.47809V3.44588C1.71 3.57951 1.81763 3.68783 1.9504 3.68783H2.79179V4.55885C2.79179 4.69248 2.89942 4.8008 3.03219 4.8008H4.01781C4.15058 4.8008 4.25821 4.69248 4.25821 4.55885V3.68783H5.09961C5.23237 3.68783 5.34 3.57951 5.34 3.44588V2.47809C5.34 2.34446 5.23237 2.23613 5.09961 2.23613H4.25821V1.38931C4.25821 1.25569 4.15058 1.14736 4.01781 1.14736H3.03219ZM6.84 2.44569H10.71V1.17756H6.84V2.44569ZM9.84 4.8008H6.84V3.53267H9.84V4.8008Z" />
<path d="M0.245259 7.7715C0.348318 7.66778 1.89735 7.0578 2.29778 7.08584C2.30034 7.08584 2.30976 7.08418 2.32519 7.08146C2.43775 7.06164 2.87008 6.98551 3.29295 7.08586C3.37235 7.1047 3.47268 7.1348 3.59304 7.1709C4.20164 7.35348 5.32249 7.68973 6.83975 7.50127C7.28743 7.53379 7.3893 7.54203 7.50285 7.88488C7.6164 8.22773 7.45155 8.51701 7.04865 8.57058C7.04865 8.57058 5.61512 9.14294 4.93807 9.14294C4.72154 9.14294 4.44315 9.11679 4.15347 9.08958C3.53735 9.0317 2.87016 8.96904 2.63844 9.14295C2.29778 9.39863 2.228 9.46814 2.16703 9.6011C2.15529 9.6267 2.14489 9.65007 2.13547 9.67155C2.12838 9.68771 2.12184 9.7028 2.1157 9.71698L2.11568 9.71702C2.08255 9.79355 2.06105 9.84319 2.0269 9.88902C1.95164 9.99001 1.97198 10.1333 2.07232 10.209C2.17266 10.2848 2.315 10.2643 2.39026 10.1633C2.45924 10.0707 2.51077 9.95095 2.55029 9.8591C2.56081 9.83463 2.57049 9.81213 2.57942 9.79267C2.62915 9.68421 2.73477 9.60006 2.96187 9.48578C3.14971 9.39125 3.68872 9.45482 4.44025 9.54346C4.59733 9.56198 4.76369 9.5816 4.93807 9.6011C4.95741 9.60326 4.97694 9.60292 4.99619 9.60007L8.44245 8.79268L9.03724 8.7146C9.56595 8.66963 10.0795 8.59744 10.5321 8.53381L10.5323 8.53379L10.5324 8.53378C11.1671 8.44455 11.6818 8.3722 11.9495 8.41557C12.0631 9.10127 11.9495 9.21555 11.9495 9.21555C11.4954 10.2441 5.25007 12 3.77382 12C3.77382 12 0.0181535 11.7714 0.0181645 10.7429C0.0181682 10.5448 0.0139567 10.3254 0.00958785 10.098C-0.0087227 9.14458 -0.0297725 8.04828 0.245259 7.7715Z" />
</svg>
