<svg width="6" height="11" viewBox="0 0 6 11" fill="none" xmlns="http://www.w3.org/2000/svg">
<path d="M1.22147 0.750252C1.09484 0.626238 0.933679 0.558594 0.74374 0.558594C0.363862 0.558594 0.0588089 0.851718 0.0588089 1.22376C0.058809 1.40978 0.139389 1.57889 0.271771 1.70854L4.30078 5.56423L0.271771 9.40865C0.139389 9.5383 0.0588097 9.71305 0.0588097 9.89343C0.0588097 10.2655 0.363863 10.5586 0.743741 10.5586C0.93368 10.5586 1.09484 10.491 1.22147 10.3669L5.69942 6.08283C5.86058 5.93627 5.93541 5.75589 5.94116 5.55859C5.94116 5.3613 5.86058 5.19219 5.69942 5.03999L1.22147 0.750252Z" />
</svg>
