<svg width="12" height="12" viewBox="0 0 12 12"  xmlns="http://www.w3.org/2000/svg">
<path fill-rule="evenodd" clip-rule="evenodd" d="M1.61013 0C0.720878 0 0 0.720878 0 1.61013V10.3899C0 11.2791 0.720878 12 1.61013 12H10.3899C11.2791 12 12 11.2791 12 10.3899V1.61013C12 0.720878 11.2791 0 10.3899 0H1.61013ZM5.9243 6.12626C4.76232 6.12626 3.82034 4.70537 3.82034 3.54876C3.82034 2.39216 4.76232 1.45455 5.9243 1.45455C7.08628 1.45455 8.02826 2.39216 8.02826 3.54876C8.02826 4.70537 7.08628 6.12626 5.9243 6.12626ZM9.48485 8.63054C9.48485 7.69232 8.76025 6.93173 7.86642 6.93173H4.14403C3.2502 6.93173 2.5256 7.69232 2.5256 8.63054V8.9703L2.54601 10.5455H9.46443L9.48485 8.9703V8.63054Z"/>
</svg>
