<svg width="12" height="12" viewBox="0 0 12 12" xmlns="http://www.w3.org/2000/svg">
<path fill-rule="evenodd" clip-rule="evenodd" d="M3.12 2.13L3.12 0.63C3.12 0.282061 2.83794 0 2.49 0C2.14206 0 1.86 0.282061 1.86 0.63L1.86 2.13H1.71429C0.767512 2.13 0 2.89751 0 3.84429V10.2857C0 11.2325 0.767512 12 1.71429 12H10.2857C11.2325 12 12 11.2325 12 10.2857V3.84429C12 2.89751 11.2325 2.13 10.2857 2.13H10.14V0.63C10.14 0.282061 9.85794 0 9.51 0C9.16206 0 8.88 0.282061 8.88 0.63V2.13H6.63V0.63C6.63 0.282061 6.34794 0 6 0C5.65206 0 5.37 0.282061 5.37 0.63V2.13H3.12ZM5.37 2.13H6.63V3.15C6.63 3.49794 6.34794 3.78 6 3.78C5.65206 3.78 5.37 3.49794 5.37 3.15V2.13ZM8.88 2.13H10.14V3.15C10.14 3.49794 9.85794 3.78 9.51 3.78C9.16206 3.78 8.88 3.49794 8.88 3.15V2.13ZM3.12 2.13V3.15C3.12 3.49794 2.83794 3.78 2.49 3.78C2.14206 3.78 1.86 3.49794 1.86 3.15V2.13H3.12ZM2.1 6.87C1.96745 6.87 1.86 6.97745 1.86 7.11V7.89C1.86 8.02255 1.96745 8.13 2.1 8.13H2.88C3.01255 8.13 3.12 8.02255 3.12 7.89V7.11C3.12 6.97745 3.01255 6.87 2.88 6.87H2.1ZM3.63 7.11C3.63 6.97745 3.73745 6.87 3.87 6.87H4.65C4.78255 6.87 4.89 6.97745 4.89 7.11V7.89C4.89 8.02255 4.78255 8.13 4.65 8.13H3.87C3.73745 8.13 3.63 8.02255 3.63 7.89V7.11ZM5.64 6.87C5.50745 6.87 5.4 6.97745 5.4 7.11V7.89C5.4 8.02255 5.50745 8.13 5.64 8.13H6.42C6.55255 8.13 6.66 8.02255 6.66 7.89V7.11C6.66 6.97745 6.55255 6.87 6.42 6.87H5.64ZM7.17 7.11C7.17 6.97745 7.27745 6.87 7.41 6.87H8.19C8.32255 6.87 8.43 6.97745 8.43 7.11V7.89C8.43 8.02255 8.32255 8.13 8.19 8.13H7.41C7.27745 8.13 7.17 8.02255 7.17 7.89V7.11ZM9.18 6.87C9.04745 6.87 8.94 6.97745 8.94 7.11V7.89C8.94 8.02255 9.04745 8.13 9.18 8.13H9.96C10.0925 8.13 10.2 8.02255 10.2 7.89V7.11C10.2 6.97745 10.0925 6.87 9.96 6.87H9.18ZM1.86 5.25C1.86 5.11745 1.96745 5.01 2.1 5.01H2.88C3.01255 5.01 3.12 5.11745 3.12 5.25V6.03C3.12 6.16255 3.01255 6.27 2.88 6.27H2.1C1.96745 6.27 1.86 6.16255 1.86 6.03V5.25ZM3.87 5.01C3.73745 5.01 3.63 5.11745 3.63 5.25V6.03C3.63 6.16255 3.73745 6.27 3.87 6.27H4.65C4.78255 6.27 4.89 6.16255 4.89 6.03V5.25C4.89 5.11745 4.78255 5.01 4.65 5.01H3.87ZM5.4 5.25C5.4 5.11745 5.50745 5.01 5.64 5.01H6.42C6.55255 5.01 6.66 5.11745 6.66 5.25V6.03C6.66 6.16255 6.55255 6.27 6.42 6.27H5.64C5.50745 6.27 5.4 6.16255 5.4 6.03V5.25ZM7.41 5.01C7.27745 5.01 7.17 5.11745 7.17 5.25V6.03C7.17 6.16255 7.27745 6.27 7.41 6.27H8.19C8.32255 6.27 8.43 6.16255 8.43 6.03V5.25C8.43 5.11745 8.32255 5.01 8.19 5.01H7.41ZM8.94 5.25C8.94 5.11745 9.04745 5.01 9.18 5.01H9.96C10.0925 5.01 10.2 5.11745 10.2 5.25V6.03C10.2 6.16255 10.0925 6.27 9.96 6.27H9.18C9.04745 6.27 8.94 6.16255 8.94 6.03V5.25ZM2.1 8.73C1.96745 8.73 1.86 8.83745 1.86 8.97V9.75C1.86 9.88255 1.96745 9.99 2.1 9.99H2.88C3.01255 9.99 3.12 9.88255 3.12 9.75V8.97C3.12 8.83745 3.01255 8.73 2.88 8.73H2.1ZM3.63 8.97C3.63 8.83745 3.73745 8.73 3.87 8.73H4.65C4.78255 8.73 4.89 8.83745 4.89 8.97V9.75C4.89 9.88255 4.78255 9.99 4.65 9.99H3.87C3.73745 9.99 3.63 9.88255 3.63 9.75V8.97ZM5.64 8.73C5.50745 8.73 5.4 8.83745 5.4 8.97V9.75C5.4 9.88255 5.50745 9.99 5.64 9.99H6.42C6.55255 9.99 6.66 9.88255 6.66 9.75V8.97C6.66 8.83745 6.55255 8.73 6.42 8.73H5.64Z" />
</svg>
