<svg width="53" height="53" viewBox="0 0 53 53" fill="none" xmlns="http://www.w3.org/2000/svg">
<path fill-rule="evenodd" clip-rule="evenodd" d="M26.5 53C41.1355 53 53 41.1355 53 26.5C53 25.9117 52.9808 25.328 52.9431 24.7492C52.2834 25.516 51.903 25.8568 51.5246 26.1959C51.3292 26.371 51.1343 26.5456 50.9018 26.7782C48.5395 29.1102 45.9047 31.1999 42.7247 32.4113C40.8773 33.1079 39.0601 33.2593 37.5156 31.8662C35.8498 30.3822 35.0624 28.4741 35.6076 26.2027C35.8094 25.3548 36.0922 24.5066 36.3927 23.6049C36.543 23.154 36.6978 22.6896 36.8493 22.205C36.6418 22.2501 36.4317 22.2845 36.2237 22.3185C35.7332 22.3986 35.2545 22.4769 34.8504 22.6896C34.3658 22.9319 33.7904 23.4164 33.6693 23.901C33.0628 26.3268 32.4883 28.7686 31.9129 31.214L31.9128 31.2146L31.9127 31.215C31.3675 33.5321 30.8216 35.8524 30.247 38.1656C30.035 39.1044 29.4595 40.013 28.8236 40.7096C28.5207 41.0427 27.6121 41.073 27.067 40.9519C26.8247 40.8913 26.643 39.9827 26.7338 39.4981C26.9122 38.507 27.1426 37.5288 27.3738 36.5466C27.4959 36.0282 27.6182 35.5087 27.7333 34.9856C27.8241 34.5919 27.8847 34.1982 27.915 33.9559C27.4529 34.2331 26.9965 34.5301 26.5388 34.8279C25.4966 35.506 24.448 36.1883 23.3116 36.6513C21.4036 37.4084 20.495 36.7724 19.1018 34.4404C18.8035 34.7226 18.5093 35.0093 18.2156 35.2955L18.215 35.2961C17.4057 36.0847 16.5985 36.8712 15.7098 37.5599C14.2864 38.7107 12.5298 39.7707 10.7733 38.6804C8.98641 37.5599 9.31955 35.4702 9.65269 33.7136C10.18 30.9624 10.8115 28.2285 11.4419 25.4989C11.6443 24.6227 11.8466 23.747 12.0453 22.8713C12.6812 20.0246 13.3475 17.1475 14.0138 14.2705L14.0138 14.2702C14.1047 13.8764 14.1956 13.4827 14.347 13.1193C14.8316 11.9987 15.7704 11.605 16.9213 11.9079C18.0764 12.1896 17.8424 13.1268 17.6578 13.8656C17.644 13.9209 17.6305 13.9751 17.6178 14.0279C17.1972 15.828 16.7299 17.6284 16.2625 19.4286L16.2624 19.429C15.8885 20.8692 15.5146 22.3094 15.1647 23.7496C14.642 25.8823 14.1481 28.0295 13.6532 30.1812C13.4313 31.146 13.2092 32.1118 12.9841 33.0776C12.8933 33.5016 12.8327 33.9559 12.8327 34.4101C12.8327 35.4096 13.3476 35.773 14.1653 35.1673C14.2832 35.0775 14.4012 34.9879 14.5193 34.8984L14.5196 34.8982C17.07 32.9632 19.6079 31.0376 20.071 27.5353C20.2016 26.5946 20.4676 25.6764 20.7326 24.7614C20.7747 24.6159 20.8169 24.4704 20.8584 24.325C21.1916 23.2347 21.9184 22.629 23.0996 22.9319C24.2807 23.2347 24.4321 24.1736 24.1898 25.2033C23.8604 26.6732 23.5096 28.1222 23.1555 29.5852L23.1552 29.5865L23.1509 29.6044C23.0834 29.8832 23.0157 30.1626 22.9481 30.4427C22.938 30.48 22.9274 30.5176 22.9168 30.5555C22.8324 30.8567 22.7429 31.1765 22.7967 31.4724C22.8129 31.5753 22.8272 31.6848 22.8418 31.7969L22.8419 31.7973L22.842 31.7977C22.9091 32.3125 22.9829 32.8787 23.2813 33.0776C23.6144 33.2896 24.4624 33.0776 24.8864 32.7747C27.9755 30.5639 29.7321 27.5656 30.3076 23.6587C30.0969 23.6888 29.9093 23.7223 29.7342 23.7535C29.3807 23.8165 29.0769 23.8707 28.7327 23.8707C28.2178 23.8707 27.5818 23.5982 27.4607 23.1136C27.3396 22.629 27.5516 22.0839 27.8847 21.781C28.2178 21.4479 28.9144 21.3267 29.3687 21.3267C30.883 21.2964 31.307 20.4182 31.6704 19.1159C32.367 16.481 33.4573 13.9976 35.3955 12.029C36.0013 11.4233 36.6675 10.8479 37.3944 10.4542C40.5441 8.69758 42.8155 10.0604 42.967 13.6644C42.9973 14.6033 42.6641 15.2393 41.7253 15.4513C40.7947 15.6702 40.6804 15.073 40.5552 14.4196L40.5552 14.4192C40.5419 14.3497 40.5284 14.2794 40.5138 14.2096C40.1807 12.665 39.2418 12.4227 38.0304 13.4827C36.607 14.7547 35.1836 17.6016 34.8201 20.2062C35.2825 20.0838 35.7388 19.9644 36.19 19.8464L36.1915 19.846L36.1991 19.844L36.2001 19.8438L36.2007 19.8436C37.7553 19.437 39.2496 19.0462 40.7258 18.601C41.1786 18.4717 41.614 18.2819 42.0507 18.0916C42.4318 17.9255 42.814 17.7589 43.2093 17.6319C44.4207 17.2382 45.6624 17.1776 46.5407 18.2679C47.5098 19.4793 47.6916 21.0542 46.8133 22.205C45.7119 23.698 44.3533 25.0328 43.0093 26.3532C42.6904 26.6666 42.3721 26.9793 42.0584 27.293C41.6574 27.694 41.1682 28.0068 40.6727 28.3235C40.4571 28.4613 40.2404 28.5998 40.0293 28.7467C40.0368 28.83 40.0595 29.1556 40.0595 29.2313C40.1371 29.2552 40.2101 29.279 40.2809 29.3022C40.5695 29.3967 40.8228 29.4796 41.2104 29.5039C41.6931 29.5342 42.119 29.5039 42.8761 29.201C43.6332 28.8982 46.3901 27.3354 48.1862 25.8142C48.5256 25.5269 48.8642 25.2401 49.2058 24.961C49.6211 24.6173 49.8468 24.3888 50.139 24.0928C50.4648 23.7629 50.8733 23.3491 51.7196 22.5987C52.0781 22.2807 52.3566 21.9869 52.5671 21.7041C50.3103 9.35798 39.498 0 26.5 0C11.8645 0 0 11.8645 0 26.5C0 41.1355 11.8645 53 26.5 53ZM23.3418 20.2667C24.2504 20.4939 26.3098 19.4793 26.3401 18.0256C26.3704 16.9656 25.8555 16.2993 24.7653 16.2387C23.251 16.1782 21.8276 17.4804 22.0396 18.9342C22.1304 19.5399 22.4333 20.0396 23.3418 20.2667Z" fill="#8EBF21"/>
<path d="M39.6961 26.4753C39.5447 24.2039 40.0898 21.8719 42.119 20.6604C42.5733 20.3879 43.2093 20.2062 43.8755 20.5393C44.0876 20.8724 44.0088 21.2662 43.6333 22.205C43.2577 23.1439 41.5133 25.4153 39.6961 26.4753Z" fill="#8EBF21"/>
</svg>
