<svg width="12" height="12" viewBox="0 0 12 12" xmlns="http://www.w3.org/2000/svg">
<path fill-rule="evenodd" clip-rule="evenodd" d="M0 0.911557C0 0.408118 0.40674 0 0.908479 0H9.08479C9.58653 0 9.99327 0.408118 9.99327 0.911557V5.10472C9.99327 5.20023 9.97863 5.29231 9.95147 5.37883L3.53061 3.65253C2.83596 3.46577 2.12194 3.87941 1.93581 4.57641L1.5513 6.01628H0.908478C0.406739 6.01628 0 5.60816 0 5.10472V0.911557ZM1.58717 0.941942C1.69188 0.941942 1.7902 0.968834 1.87536 1.01597C1.74783 1.14664 1.66946 1.32396 1.66946 1.51926C1.66946 1.71456 1.74783 1.89188 1.87536 2.02255C1.7902 2.06969 1.69188 2.09658 1.58717 2.09658C1.26251 2.09658 0.999327 1.83811 0.999327 1.51926C0.999327 1.20042 1.26251 0.941942 1.58717 0.941942ZM2.41014 2.09658C2.73479 2.09658 2.99798 1.83811 2.99798 1.51926C2.99798 1.20042 2.73479 0.941942 2.41014 0.941942C2.08548 0.941942 1.8223 1.20042 1.8223 1.51926C1.8223 1.83811 2.08548 2.09658 2.41014 2.09658Z"/>
<path d="M3.42872 4.03408C2.94408 3.90378 2.44592 4.19237 2.31606 4.67865L1.71466 6.93075L11.3674 9.52596L11.9688 7.27386C12.0987 6.78758 11.8111 6.28774 11.3264 6.15744L3.42872 4.03408Z"/>
<path d="M11.1009 10.5239L1.44817 7.92864L1.23446 8.72893C1.1046 9.21522 1.39221 9.71506 1.87685 9.84536L9.77456 11.9687C10.2592 12.099 10.7574 11.8104 10.8872 11.3241L11.1009 10.5239Z"/>
</svg>
