<svg width="12" height="12" viewBox="0 0 12 12" fill="none" xmlns="http://www.w3.org/2000/svg">
<path d="M9.04248 11.8301C9.26746 11.8663 9.44098 11.8943 9.5608 11.9415L9.55583 11.9203C9.7515 12.046 10.0149 12.023 10.1859 11.8515L11.8522 10.181C12.0494 9.98333 12.0492 9.66313 11.8518 9.46583L9.67739 7.2926C9.47998 7.0953 9.16009 7.09563 8.96289 7.29332L8.10828 8.1501C7.41073 8.19606 6.26263 8.01974 5.12223 6.87999C3.98184 5.74023 3.80392 4.59127 3.84876 3.89297L4.70338 3.03619C4.90058 2.83849 4.9004 2.51829 4.70299 2.32099L2.52856 0.147765C2.33115 -0.0495355 2.01126 -0.0492133 1.81406 0.148484L0.147787 1.81897C-0.0232735 1.99046 -0.045819 2.25414 0.0800689 2.44982L0.0588093 2.44486C0.106234 2.56473 0.134395 2.73838 0.17091 2.96353C0.329499 3.94136 0.645636 5.89064 3.38158 8.62505C6.11752 11.3595 8.06537 11.6729 9.04248 11.8301Z" fill="#058487"/>
</svg>